<?xml version="1.0" standalone="no"?>
<!DOCTYPE svg PUBLIC "-//W3C//DTD SVG 20010904//EN"
 "http://www.w3.org/TR/2001/REC-SVG-20010904/DTD/svg10.dtd">
<svg version="1.0" xmlns="http://www.w3.org/2000/svg"
 width="3000.000000pt" height="3000.000000pt" viewBox="0 0 3000.000000 3000.000000"
 preserveAspectRatio="xMidYMid meet">
<metadata>
Created by potrace 1.16, written by Peter Selinger 2001-2019
</metadata>
<g transform="translate(0.000000,3000.000000) scale(0.100000,-0.100000)"
fill="#000000" stroke="none">
<path d="M9033 24399 c-1514 -53 -2599 -367 -3219 -931 -357 -324 -564 -717
-640 -1213 -28 -182 -26 -597 4 -793 120 -773 515 -1303 1284 -1724 414 -226
894 -395 1908 -674 1209 -333 1625 -480 1974 -699 163 -103 457 -334 546 -429
l24 -27 -55 -55 -55 -55 -84 57 c-335 226 -957 379 -1680 414 -113 5 -367 14
-565 20 -198 6 -434 17 -525 25 -700 62 -1423 188 -2193 381 -165 42 -300 74
-302 72 -7 -9 -416 -2770 -412 -2782 10 -25 918 -192 1522 -280 1139 -166
2124 -236 3095 -222 1056 15 1719 62 2300 162 1109 190 1755 587 2055 1263
200 451 256 1106 143 1681 -119 613 -475 1106 -1059 1471 -143 88 -447 239
-644 317 -396 158 -719 253 -1763 521 -813 209 -1271 359 -1595 523 -209 106
-499 312 -692 491 l-70 65 35 37 c19 20 47 46 62 56 l27 20 53 -41 c124 -99
448 -232 728 -299 389 -94 769 -135 1355 -146 171 -3 391 -10 490 -16 723 -40
1640 -192 2493 -415 118 -31 216 -53 220 -50 7 7 411 2723 412 2767 0 26 -3
27 -112 48 -210 39 -712 120 -1023 165 -1613 235 -2963 333 -4042 295z"/>
<path d="M16885 24244 c-913 -6 -1810 -12 -1992 -13 l-333 -1 0 -4300 0 -4300
1950 0 1950 0 0 1418 -1 1417 -143 945 -142 945 140 3 c76 1 142 -1 146 -5 4
-4 362 -1069 796 -2367 l789 -2358 1455 7 c800 4 1898 11 2440 14 l985 6 3
4303 2 4302 -1950 0 -1950 0 0 -1367 0 -1368 140 -965 c77 -531 142 -980 145
-997 l6 -33 -148 0 -148 0 -791 2363 -791 2362 -449 1 c-247 0 -1196 -5 -2109
-12z"/>
<path d="M19560 14063 c-988 -53 -1631 -166 -2220 -390 -437 -167 -762 -371
-1025 -645 -211 -218 -348 -446 -444 -733 -162 -486 -147 -1148 36 -1645 271
-733 895 -1226 2045 -1615 240 -82 527 -167 998 -296 1035 -285 1427 -413
1765 -579 252 -123 523 -312 722 -503 l84 -81 -53 -53 c-29 -29 -56 -53 -60
-53 -4 0 -31 18 -60 40 -71 55 -287 159 -428 208 -433 149 -895 214 -1650 232
-582 13 -954 45 -1485 125 -470 71 -1068 194 -1509 310 -115 30 -210 54 -212
52 -1 -1 -91 -597 -200 -1324 -109 -728 -201 -1323 -204 -1323 -3 0 -90 204
-194 453 -465 1112 -801 1883 -967 2217 -206 413 -354 637 -553 835 -316 314
-669 442 -1297 471 l-146 6 -26 54 -27 54 43 39 c291 266 570 507 705 610 385
293 767 451 1242 515 195 27 391 36 753 36 271 0 347 3 347 13 34 1178 76
2794 73 2800 -6 11 -1616 8 -1843 -3 -578 -29 -1058 -154 -1520 -397 -562
-295 -1029 -732 -1565 -1464 -304 -417 -384 -519 -484 -620 -132 -132 -198
-169 -303 -169 l-68 0 -2 1328 -3 1327 -1947 3 -1948 2 0 -4305 0 -4305 1950
0 1950 0 0 1512 0 1513 -362 362 -362 362 94 98 c52 54 98 99 102 101 6 3 417
-352 748 -647 417 -372 619 -607 765 -891 80 -157 135 -298 255 -654 163 -484
298 -833 557 -1438 l135 -318 2050 0 c1636 0 2049 3 2045 13 -97 232 -127 310
-123 314 3 3 123 -18 268 -46 1173 -227 2334 -368 3408 -412 314 -13 1274 -7
1660 11 1049 47 1734 147 2268 331 384 133 662 293 896 519 312 301 482 659
562 1184 25 161 30 626 9 806 -60 521 -245 945 -559 1280 -228 243 -479 422
-840 601 -452 223 -852 354 -1966 639 -789 202 -1128 304 -1485 447 -165 66
-257 111 -403 197 -182 109 -446 310 -562 431 l-45 46 60 53 59 53 61 -45 c81
-59 293 -162 437 -211 240 -82 566 -151 873 -186 241 -27 408 -36 825 -45 746
-17 1327 -83 2100 -239 327 -66 959 -217 1032 -246 13 -5 18 0 23 27 13 77
405 2742 405 2758 0 12 -11 19 -37 23 -21 3 -171 28 -333 56 -1252 215 -2578
363 -3660 411 -206 9 -1081 11 -1230 3z"/>
</g>
</svg>
