<?xml version="1.0" encoding="UTF-8"?>
<svg version="1.1" xmlns="http://www.w3.org/2000/svg" width="3000" height="3000">
<path d="M0 0 C2.69889985 -0.00165105 5.39779681 -0.0036973 8.09669572 -0.0062201 C13.97260923 -0.01091592 19.84851432 -0.01192304 25.7244294 -0.01049176 C34.5211967 -0.0083648 43.31795534 -0.01199219 52.1147213 -0.01670653 C67.10966317 -0.02456922 82.10460266 -0.02766804 97.09954643 -0.02815247 C112.29366103 -0.02865515 127.48777296 -0.03130507 142.68188667 -0.03656006 C143.64196861 -0.03689019 144.60205056 -0.03722033 145.59122589 -0.03756046 C149.50160326 -0.03891049 153.41198063 -0.04027316 157.32235799 -0.04165257 C203.60153533 -0.05794873 249.88071215 -0.06434058 296.15989187 -0.06910044 C319.21060279 -0.07148457 342.26131342 -0.07518825 365.31202413 -0.07913754 C439.27348815 -0.09180214 513.23495217 -0.10258548 587.19641726 -0.10597799 C590.73090497 -0.10614023 594.26539268 -0.10630579 597.79988038 -0.10647238 C604.88820616 -0.10680617 611.97653194 -0.10713665 619.06485772 -0.10746694 C627.36334759 -0.10785383 635.66183745 -0.10824344 643.96032732 -0.108638 C646.33541167 -0.10875042 648.71049602 -0.10886184 651.08558037 -0.10897225 C727.34125949 -0.11252057 803.59692917 -0.12759432 879.85260469 -0.15091 C934.65191675 -0.16765846 989.45122703 -0.18312959 1044.25054169 -0.18764496 C1045.37824106 -0.18773844 1046.50594043 -0.18783193 1047.66781251 -0.18792825 C1072.42751286 -0.1899476 1097.18721317 -0.19110339 1121.94691359 -0.19145683 C1130.80729394 -0.191593 1139.66767429 -0.19180199 1148.52805464 -0.19205009 C1150.7322198 -0.19211165 1152.93638497 -0.19216997 1155.14055014 -0.19222504 C1190.2204234 -0.19314374 1225.30028681 -0.20309864 1260.38015683 -0.21768252 C1295.73135317 -0.23232034 1331.08253743 -0.23732688 1366.43373626 -0.22926298 C1371.32750473 -0.22814773 1376.22127322 -0.22713703 1381.11504173 -0.22618866 C1382.07428282 -0.22599869 1383.0335239 -0.22580872 1384.0218329 -0.225613 C1399.16129218 -0.22288791 1414.300729 -0.23019372 1429.4401834 -0.24176203 C1444.35639978 -0.25294834 1459.27258468 -0.25328883 1474.18880159 -0.24239184 C1482.15565399 -0.23686135 1490.12243529 -0.23592848 1498.08928099 -0.24890056 C1588.05106023 -0.38808923 1673.67701765 12.48295848 1769.71247482 59.13142776 C1770.74920334 59.64850296 1771.78593185 60.16557816 1772.85407639 60.6983223 C1791.86496606 70.22859363 1810.24774609 80.98306506 1827.71247482 93.13142776 C1828.63407394 93.76782181 1828.63407394 93.76782181 1829.57429123 94.4170723 C1844.42986306 104.69071901 1858.88408308 115.50526197 1872.71247482 127.13142776 C1873.23341721 127.56745316 1873.75435959 128.00347855 1874.2910881 128.45271683 C1888.23903509 140.1525686 1901.32640649 152.65797943 1914.21247482 165.50642776 C1914.99071609 166.28065079 1914.99071609 166.28065079 1915.78467941 167.07051468 C1921.64699213 172.90983429 1927.36069175 178.81400064 1932.71247482 185.13142776 C1933.6736665 186.23780778 1934.63587366 187.34330655 1935.59919357 188.44783401 C1951.9500361 207.35079217 1967.1519764 227.12471598 1980.71247482 248.13142776 C1981.1626799 248.82075394 1981.61288498 249.51008011 1982.07673264 250.22029495 C2030.68841637 324.75376754 2060.19080766 410.76269159 2070.10094076 573.39820398 C2070.09032471 581.33235372 2070.09769937 589.26646584 2070.10530864 597.20061545 C2070.11902121 612.02195384 2070.11870164 626.84326118 2070.110466 641.66460228 C2070.10218287 656.66326461 2070.10049466 671.66190657 2070.10667801 686.66057014 C2070.10706553 687.61146688 2070.10745304 688.56236361 2070.10785231 689.54207539 C2070.1094523 693.41557144 2070.11109845 697.28906747 2070.11280313 701.16256347 C2070.12863295 737.15779895 2070.12976417 773.15302077 2070.12136078 809.14825821 C2070.12111239 810.21272578 2070.12086401 811.27719335 2070.12060809 812.37391751 C2070.1203593 813.44010857 2070.12011052 814.50629962 2070.11985419 815.60479949 C2070.11227374 848.13447496 2070.11033551 880.66414479 2070.11392212 913.19382095 C2070.11415456 915.37522361 2070.11438603 917.55662626 2070.11461653 919.73802892 C2070.11554799 928.50498068 2070.116504 937.27193245 2070.11749582 946.03888421 C2070.12024635 970.54358099 2070.12195851 995.04827779 2070.12285423 1019.5529747 C2070.12289517 1020.66870416 2070.12293611 1021.78443361 2070.12297829 1022.93397305 C2070.12420546 1058.46663734 2070.12082887 1093.99929967 2070.1143055 1129.53196335 C2070.11409475 1130.6838179 2070.113884 1131.83567245 2070.11366687 1133.02243168 C2070.11023235 1151.72581364 2070.10657381 1170.42919555 2070.10289635 1189.13257746 C2070.08832822 1263.30456295 2070.08900441 1337.47653219 2070.1035881 1411.64851761 C2070.10725191 1430.34264245 2070.11088516 1449.03676729 2070.1143055 1467.73089218 C2070.11462251 1469.45767353 2070.11462251 1469.45767353 2070.11494593 1471.21933935 C2070.12141799 1506.71618677 2070.12415665 1542.21303284 2070.12285423 1577.70988083 C2070.12281348 1578.82478288 2070.12277273 1579.93968492 2070.12273074 1581.08837188 C2070.12179315 1605.56620109 2070.11989195 1630.04403016 2070.11712272 1654.52185923 C2070.11613537 1663.28080265 2070.11519612 1672.03974607 2070.11427059 1680.79868949 C2070.11403842 1682.97753023 2070.11380223 1685.15637098 2070.113562 1687.33521172 C2070.10998652 1719.85312287 2070.11302025 1752.37102766 2070.12060809 1784.88893802 C2070.12085648 1785.95340559 2070.12110487 1787.01787316 2070.12136078 1788.11459732 C2070.12173285 1789.70833125 2070.12173285 1789.70833125 2070.12211244 1791.33426183 C2070.13040078 1827.22925188 2070.12731554 1863.12422559 2070.11151855 1899.01921332 C2070.10986162 1902.88023732 2070.10825149 1906.74126135 2070.10667801 1910.60228539 C2070.10628739 1911.54979602 2070.10589677 1912.49730665 2070.10549431 1913.47352973 C2070.09959631 1928.42635357 2070.10367634 1943.37915696 2070.11198503 1958.33197895 C2070.11995585 1973.06437382 2070.1170719 1987.79673448 2070.10294276 2002.52912506 C2070.09568309 2010.39713664 2070.09299239 2018.26507778 2070.10416071 2026.13308674 C2070.21175787 2106.59585534 2060.07665825 2183.73643393 1978.71247482 2352.13142776 C1978.28966232 2352.76886917 1977.86684982 2353.40631058 1977.43122482 2354.06306839 C1956.4731601 2385.59601028 1931.65528147 2414.23928672 1904.96247482 2441.00642776 C1904.41877243 2441.55280899 1903.87507004 2442.09919022 1903.31489182 2442.66212845 C1897.29420106 2448.70528955 1891.21707342 2454.60474962 1884.71247482 2460.13142776 C1883.55541509 2461.15247712 1882.40044006 2462.17589406 1881.24763107 2463.20174026 C1872.73018148 2470.71771031 1863.92289969 2477.73368913 1854.83112717 2484.54060745 C1852.74818191 2486.10461659 1850.67637942 2487.68233253 1848.60700607 2489.26424026 C1839.86827988 2495.92246847 1830.9420864 2502.17460109 1821.71247482 2508.13142776 C1821.0081633 2508.58985062 1820.30385178 2509.04827347 1819.57819748 2509.52058792 C1776.24575139 2537.66905532 1729.95400168 2558.77253943 1680.71247482 2574.13142776 C1678.83882248 2574.71730667 1678.83882248 2574.71730667 1676.92731857 2575.31502151 C1617.58548852 2593.61914253 1557.64428096 2597.60661163 1495.9106449 2597.51989376 C1487.89482854 2597.50927938 1479.87904942 2597.51665162 1471.86323318 2597.52426158 C1456.88924402 2597.53797543 1441.91528557 2597.53765394 1426.94129372 2597.52941895 C1411.78782595 2597.52113627 1396.63437835 2597.51944725 1381.48090935 2597.52563095 C1380.52025356 2597.52601847 1379.55959778 2597.52640599 1378.56983121 2597.52680525 C1374.65659142 2597.52840524 1370.74335165 2597.53005139 1366.8301119 2597.53175607 C1330.46424062 2597.54758649 1294.09838284 2597.54871684 1257.73250961 2597.54031372 C1256.11931634 2597.53994114 1256.11931634 2597.53994114 1254.47353331 2597.53956103 C1253.3963302 2597.53931225 1252.31912709 2597.53906346 1251.20928146 2597.53880713 C1218.34457585 2597.5312269 1185.47987582 2597.52928836 1152.61516953 2597.53287506 C1150.41136127 2597.5331075 1148.20755301 2597.53333897 1146.00374475 2597.53356947 C1137.14676182 2597.53450093 1128.2897789 2597.53545694 1119.43279598 2597.53644876 C1094.67640023 2597.5391993 1069.92000445 2597.54091146 1045.16360855 2597.54180717 C1044.03641582 2597.54184811 1042.90922308 2597.54188905 1041.747873 2597.54193123 C1005.84975328 2597.54315841 969.9516355 2597.53978175 934.05351639 2597.53325844 C932.30794587 2597.53294232 932.30794587 2597.53294232 930.52711129 2597.53261981 C911.63112557 2597.52918528 892.73513989 2597.52552675 873.83915422 2597.52184929 C798.90320492 2597.50728114 723.96727171 2597.50795733 649.03132248 2597.52254105 C630.14469276 2597.52620485 611.25806303 2597.52983809 592.37143326 2597.53325844 C590.62687383 2597.53357545 590.62687383 2597.53357545 588.84707078 2597.53389888 C552.98516063 2597.54037087 517.12325181 2597.54310961 481.26134109 2597.54180717 C480.13498411 2597.54176642 479.00862713 2597.54172567 477.84813811 2597.54168368 C453.11889299 2597.5407461 428.38964801 2597.5388449 403.66040304 2597.53607567 C394.81150731 2597.53508831 385.96261158 2597.53414906 377.11371585 2597.53322353 C374.91249581 2597.53299137 372.71127577 2597.53275518 370.51005573 2597.53251494 C337.65717357 2597.52893936 304.80429771 2597.5319734 271.95141633 2597.53956103 C270.87595415 2597.53980942 269.80049198 2597.54005781 268.69244003 2597.54031372 C267.61897628 2597.54056177 266.54551252 2597.54080981 265.43951956 2597.54106538 C229.17499775 2597.54935345 192.91049212 2597.54626905 156.64597261 2597.53047149 C152.74532852 2597.52881455 148.84468442 2597.52720443 144.9440403 2597.52563095 C143.50818846 2597.52504502 143.50818846 2597.52504502 142.04332952 2597.52444725 C126.93606637 2597.51854888 111.82882345 2597.52262968 96.72156213 2597.53093797 C81.83758362 2597.53890811 66.95363898 2597.53602607 52.06966473 2597.52189571 C44.12045006 2597.51463521 36.17130512 2597.51194752 28.22209305 2597.52311365 C-63.6480525 2597.64464825 -151.42949512 2583.46779194 -243.28752518 2538.13142776 C-244.32425369 2537.61435257 -245.36098221 2537.09727737 -246.42912674 2536.56453323 C-265.44001641 2527.0342619 -283.82279645 2516.27979047 -301.28752518 2504.13142776 C-301.90192459 2503.70716507 -302.51632401 2503.28290237 -303.14934158 2502.84578323 C-318.00491341 2492.57213652 -332.45913343 2481.75759356 -346.28752518 2470.13142776 C-346.80846756 2469.69540237 -347.32940994 2469.25937698 -347.86613846 2468.8101387 C-361.81408544 2457.11028693 -374.90145685 2444.6048761 -387.78752518 2431.75642776 C-388.30635269 2431.24027908 -388.82518021 2430.7241304 -389.35972977 2430.19234085 C-395.22204248 2424.35302124 -400.9357421 2418.44885489 -406.28752518 2412.13142776 C-407.24871685 2411.02504775 -408.21092402 2409.91954898 -409.17424393 2408.81502151 C-425.52508645 2389.91206336 -440.72702676 2370.13813955 -454.28752518 2349.13142776 C-454.73773026 2348.44210159 -455.18793533 2347.75277542 -455.65178299 2347.04256058 C-467.32563358 2329.14372317 -478.00691901 2310.53665934 -487.25529861 2291.26521683 C-488.42669313 2288.84374378 -489.62681661 2286.43739995 -490.82658768 2284.02986526 C-516.24484006 2232.57196496 -531.88577152 2176.20785326 -539.60002518 2119.44392776 C-539.74730057 2118.36167923 -539.89457596 2117.27943069 -540.04631424 2116.16438675 C-542.71880758 2095.0488729 -543.58193415 2074.008001 -543.54200077 2052.7402544 C-543.54439622 2050.0558174 -543.54758379 2047.3713916 -543.55171737 2044.68695775 C-543.55909239 2038.87697208 -543.55919981 2033.06702317 -543.55432788 2027.25703538 C-543.5470706 2018.55914222 -543.55148136 2009.86128027 -543.55800923 2001.1633879 C-543.56880172 1986.33262281 -543.57017762 1971.50187044 -543.56631088 1956.67110252 C-543.56242695 1941.65414987 -543.56290175 1926.63720669 -543.56862068 1911.62025452 C-543.56897951 1910.66961601 -543.56933833 1909.71897751 -543.56970803 1908.73953178 C-543.57118304 1904.86732382 -543.57268745 1900.99511588 -543.5742295 1897.12290795 C-543.5898434 1857.86833441 -543.59254574 1818.61376737 -543.59007344 1779.35919128 C-543.58973497 1773.93982123 -543.58941287 1768.52045118 -543.58910775 1763.10108113 C-543.58904671 1762.02457489 -543.58898566 1760.94806865 -543.58892277 1759.83894101 C-543.58764954 1735.95596648 -543.5902547 1712.07299283 -543.59363382 1688.19001856 C-543.59440457 1682.73261948 -543.5951493 1677.27522039 -543.59589883 1671.81782131 C-543.59620053 1669.62744743 -543.59650241 1667.43707355 -543.59680448 1665.24669968 C-543.59695416 1664.16094926 -543.59710384 1663.07519884 -543.59725805 1661.9565469 C-543.59756158 1659.76032062 -543.59786627 1657.56409435 -543.5981721 1655.36786808 C-543.60684255 1593.06860352 -543.61149092 1530.76933974 -543.60722446 1468.47007465 C-543.60714641 1467.31702589 -543.60706835 1466.16397713 -543.60698793 1464.9759875 C-543.60611517 1452.11901429 -543.60518591 1439.26204108 -543.6042373 1426.40506787 C-543.60415179 1425.24432955 -543.60406628 1424.08359123 -543.60397818 1422.88767901 C-543.60326749 1413.24440374 -543.60326749 1413.24440374 -543.60293595 1408.80537485 C-543.59740111 1334.57315256 -543.60494071 1260.34094272 -543.62370682 1186.10872269 C-543.62842927 1167.40523945 -543.63310989 1148.7017562 -543.63754368 1129.9982729 C-543.637817 1128.84652753 -543.63809032 1127.69478217 -543.63837193 1126.50813543 C-543.64674719 1090.9933752 -543.65142326 1055.478616 -543.65225124 1019.96385479 C-543.65227761 1018.84834867 -543.65230398 1017.73284255 -543.65233114 1016.58353321 C-543.652872 992.09199916 -543.6524993 967.60046518 -543.65129143 943.10893116 C-543.65086583 934.34481966 -543.6505007 925.58070816 -543.65016199 916.81659667 C-543.65007668 914.63643061 -543.64998775 912.45626456 -543.64989517 910.27609851 C-543.64844836 875.58438439 -543.6555599 840.89267875 -543.66689913 806.20096667 C-543.67856614 770.27372644 -543.67909429 734.34650129 -543.6670557 698.41926099 C-543.66580396 694.55457753 -543.66460047 690.68989406 -543.66343498 686.82521057 C-543.66314469 685.876797 -543.66285439 684.92838343 -543.6625553 683.95123005 C-543.65824383 668.98391786 -543.66393636 654.01662724 -543.67387518 639.04931843 C-543.68345421 624.30241665 -543.68218154 609.55554788 -543.66966895 594.80864797 C-543.66327417 586.93269931 -543.661461 579.05682178 -543.67353228 571.18087781 C-543.79027883 490.69889789 -533.6592653 413.54454405 -416.28752518 197.13142776 C-415.63348709 196.35001419 -415.63348709 196.35001419 -414.96623611 195.55281448 C-403.26638435 181.6048675 -390.76097351 168.51749609 -377.91252518 155.63142776 C-377.3963765 155.11260025 -376.88022781 154.59377274 -376.34843826 154.05922318 C-370.50807479 148.19586248 -364.59199659 142.49962538 -358.28752518 137.13142776 C-357.13055974 136.11027157 -355.97558003 135.08686076 -354.82268143 134.06111526 C-346.30523183 126.54514522 -337.49795005 119.5291664 -328.40617752 112.72224808 C-326.32323227 111.15823894 -324.25142977 109.580523 -322.18205643 107.99861526 C-313.44333023 101.34038706 -304.51713675 95.08825444 -295.28752518 89.13142776 C-294.58321365 88.67300491 -293.87890213 88.21458206 -293.15324783 87.74226761 C-217.30885118 38.47425439 -130.30158079 9.13217982 -40.28752518 1.13142776 C-39.44399312 1.04834176 -38.60046106 0.96525575 -37.73136742 0.87965198 C-25.17338399 -0.20128142 -12.59397965 -0.00938908 0 0 Z " fill="#FEFEFE" transform="translate(739.287525177002,204.86857223510742)"/>
<path d="M0 0 C2.12554222 0.20549367 4.25128041 0.40883241 6.3770752 0.61169434 C21.00404063 2.01848467 35.5631217 3.73282257 50.12072754 5.73376465 C59.3497844 6.99528175 68.58695795 8.08506148 77.85705566 8.99938965 C86.55608087 9.90377917 95.17136528 11.25932549 103.8106842 12.60932922 C111.55602792 13.81605992 119.30768592 14.95650766 127.07141113 16.03845215 C128.68059921 16.26320976 128.68059921 16.26320976 130.32229614 16.49250793 C132.53777382 16.80192961 134.75325854 17.11130084 136.96875 17.42062378 C175.83968142 22.86541386 214.62639935 29.0269102 253.21594238 36.2142334 C253.34472032 42.18484669 252.9993995 47.61625275 251.84094238 53.4642334 C248.94469673 68.62519276 246.93293786 83.94262537 244.71594238 99.2142334 C244.10197672 103.44349011 243.48748665 107.67266977 242.87219238 111.9017334 C242.72556656 112.9103241 242.57894073 113.91891479 242.4278717 114.95806885 C241.67287545 120.13627681 240.89830494 125.31018147 240.08703613 130.4798584 C239.18192616 136.29333842 238.46980422 142.12208045 237.77844238 147.9642334 C236.87844856 155.35598598 235.85859856 162.67101473 234.48400879 169.98962402 C232.33893339 181.66806269 230.79412095 193.45907919 229.09529114 205.209198 C228.47482697 209.48616191 227.82367145 213.75731395 227.15344238 218.0267334 C226.2281263 223.99203947 225.48779661 229.97004096 224.77844238 235.9642334 C223.87844856 243.35598598 222.85859856 250.67101473 221.48400879 257.98962402 C219.59516221 268.27307554 218.20673083 278.64494727 216.70623779 288.99069214 C213.6091266 310.33980381 213.6091266 310.33980381 212.21594238 317.2142334 C211.50741119 317.03376968 210.79888 316.85330597 210.06887817 316.66737366 C175.58463962 307.89188312 141.13187862 299.13124612 106.21594238 292.2142334 C104.99584473 291.97205078 103.77574707 291.72986816 102.51867676 291.48034668 C94.76738011 289.96181132 86.99785288 288.56605333 79.21594238 287.2142334 C77.62266464 286.93567918 76.02940407 286.6570268 74.43615723 286.3782959 C49.18534872 281.96854103 24.05134437 277.81539432 -1.46594238 275.27233887 C-7.65612388 274.65443147 -13.81512457 273.98194925 -19.97155762 273.0892334 C-26.15036929 272.21069496 -32.30437086 271.82181655 -38.53479004 271.55554199 C-39.24611084 271.52412109 -39.95743164 271.4927002 -40.69030762 271.46032715 C-41.31228027 271.43639893 -41.93425293 271.4124707 -42.57507324 271.38781738 C-44.36079543 271.24749372 -46.13848814 271.00727978 -47.90916443 270.73672485 C-51.93503045 270.19387619 -55.93800437 269.89056131 -59.99133301 269.68078613 C-60.77096688 269.63918334 -61.55060076 269.59758055 -62.3538599 269.55471706 C-70.5151105 269.14182802 -78.67849216 268.95307664 -86.84811211 268.79924202 C-89.55585789 268.74771099 -92.26346398 268.69124953 -94.97108459 268.63352966 C-102.65510653 268.47020641 -110.33922218 268.31244857 -118.02355957 268.16467285 C-122.76480482 268.07314983 -127.50583057 267.97363765 -132.24681282 267.86941338 C-134.02571734 267.83180393 -135.8046852 267.79705324 -137.58370781 267.7655201 C-148.36554269 267.57349673 -158.97124107 266.92415043 -169.68360901 265.66734314 C-173.23465534 265.25469485 -176.77476457 265.00952624 -180.34655762 264.8392334 C-225.60058996 261.67715325 -286.7758519 251.2329 -321.78405762 220.2142334 C-323.05716074 221.14864875 -324.32744562 222.08690451 -325.59655762 223.0267334 C-326.30425293 223.54880371 -327.01194824 224.07087402 -327.74108887 224.60876465 C-329.56937155 226.04552217 -331.18302449 227.53239103 -332.78405762 229.2142334 C-328.75900528 238.49479449 -318.5412625 245.14288547 -310.78405762 251.2142334 C-310.15435059 251.7097168 -309.52464355 252.2052002 -308.87585449 252.71569824 C-299.14323134 260.34981167 -289.25854993 267.62820234 -278.78405762 274.2142334 C-278.13533691 274.62238281 -277.48661621 275.03053223 -276.8182373 275.4510498 C-248.27250083 293.21761673 -216.59373564 303.91239511 -184.78405762 314.2142334 C-183.87043457 314.51313477 -182.95681152 314.81203613 -182.01550293 315.11999512 C-164.25814183 320.92811737 -146.25790408 325.93879121 -128.10949707 330.36853027 C-122.04097008 331.86284916 -116.03612098 333.53575549 -110.03405762 335.2767334 C-102.92144517 337.33767945 -95.79913352 339.26085756 -88.60437012 341.0189209 C-82.50964723 342.51610873 -76.43765393 344.10264666 -70.36227417 345.67605591 C-57.62378868 348.97482963 -44.88188651 352.25325801 -32.09265137 355.35095215 C-21.32654006 357.97462633 -10.71311941 360.91926346 -0.12683105 364.19030762 C3.12368651 365.18597448 6.37901394 366.16398113 9.63595581 367.13835144 C65.68813967 383.92449665 123.2860717 403.81638541 169.21594238 441.2142334 C170.29297134 442.06978166 171.37103322 442.92403187 172.45031738 443.7767334 C177.70163738 447.97778939 182.56507652 452.36309102 187.21594238 457.2142334 C189.59006568 459.61140644 191.97216619 461.98590781 194.43469238 464.2923584 C205.95062606 475.25615827 215.43777469 488.38120463 223.21594238 502.2142334 C223.6034668 502.90178711 223.99099121 503.58934082 224.39025879 504.29772949 C236.01960698 525.11984376 242.9778714 545.96583149 248.21594238 569.2142334 C248.48753174 570.40621338 248.75912109 571.59819336 249.03894043 572.82629395 C256.62478608 606.9776094 255.52784154 645.76509708 250.21594238 680.2142334 C250.09847656 680.99314941 249.98101074 681.77206543 249.85998535 682.57458496 C249.14339658 687.16200479 248.21419047 691.68090495 247.21594238 696.2142334 C246.91072182 697.77402502 246.60606909 699.33392782 246.30187988 700.8939209 C239.55527093 733.72212636 223.41342949 764.10852493 200.21594238 788.2142334 C199.74076172 788.71519531 199.26558105 789.21615723 198.77600098 789.7322998 C175.43939753 814.24640453 145.32550293 830.60943179 113.84094238 842.3392334 C112.77899658 842.73489502 111.71705078 843.13055664 110.6229248 843.53820801 C94.13609764 849.55677497 77.54122552 854.38748229 60.40344238 858.1517334 C59.44561859 858.36356262 58.4877948 858.57539185 57.50094604 858.79364014 C21.44331146 866.71243763 -15.00652686 871.33236109 -51.78405762 874.2142334 C-53.09962646 874.31834534 -53.09962646 874.31834534 -54.44177246 874.42456055 C-83.27565122 876.69489289 -112.13637295 878.11983274 -141.04046631 879.11853027 C-143.57671404 879.20700075 -146.11276186 879.29976336 -148.64880371 879.3939209 C-174.0025974 880.3171152 -199.36877925 880.31665317 -224.73601913 880.33672333 C-227.41411346 880.33918069 -230.09220213 880.34313388 -232.77029419 880.34735107 C-267.27389801 880.39370317 -301.69308497 880.04478569 -336.09655762 877.2142334 C-339.49006092 876.94429287 -342.88378479 876.67730596 -346.27758789 876.41116333 C-348.4537201 876.24046149 -350.62974922 876.06843957 -352.80566406 875.89498901 C-359.01063151 875.40619999 -365.21235063 875.00215097 -371.42858887 874.6907959 C-379.37528627 874.28536968 -387.25529293 873.51059511 -395.15905762 872.5892334 C-396.63973096 872.4204291 -398.12044574 872.25198801 -399.60119629 872.0838623 C-403.95168624 871.58786151 -408.30119246 871.08362299 -412.65057373 870.57800293 C-416.11921551 870.17532456 -419.58809533 869.77473764 -423.05700684 869.37438965 C-430.40018062 868.52658633 -437.7430081 867.67583181 -445.08557892 866.82282257 C-447.07797082 866.59139238 -449.07038788 866.36017881 -451.06280518 866.12896729 C-478.4810557 862.94291817 -478.4810557 862.94291817 -490.78405762 861.2142334 C-491.60006439 861.10019165 -492.41607117 860.9861499 -493.25680542 860.86865234 C-500.24668784 859.89108574 -507.23450669 858.89932013 -514.22155762 857.9017334 C-515.83621414 857.67121277 -515.83621414 857.67121277 -517.48348999 857.43603516 C-565.34008048 850.59259905 -565.34008048 850.59259905 -583.64343262 847.00720215 C-586.93878935 846.36459096 -590.24195599 845.77802514 -593.54968262 845.20251465 C-614.36916413 841.5739853 -635.07411346 837.41731813 -655.78405762 833.2142334 C-655.49683838 833.8941333 -655.20961914 834.5740332 -654.91369629 835.27453613 C-653.59618274 838.39881922 -652.28384103 841.52525011 -650.97155762 844.6517334 C-650.51974121 845.72101074 -650.0679248 846.79028809 -649.60241699 847.89196777 C-648.94016113 849.47268066 -648.94016113 849.47268066 -648.26452637 851.08532715 C-647.65967407 852.52283325 -647.65967407 852.52283325 -647.04260254 853.98937988 C-645.47380269 858.00922028 -644.14861798 862.12055231 -642.78405762 866.2142334 C-778.08405762 866.2142334 -913.38405762 866.2142334 -1052.78405762 866.2142334 C-1109.62219769 735.23938887 -1109.62219769 735.23938887 -1124.46276855 683.79919434 C-1136.07225767 644.3333721 -1153.74946116 608.16886007 -1181.53405762 577.6829834 C-1183.80531462 575.19090975 -1186.04397627 572.67182492 -1188.28405762 570.1517334 C-1194.30968022 563.46591214 -1200.58887858 557.15218255 -1207.42077637 551.2923584 C-1210.6010924 548.49578298 -1213.68895562 545.60446156 -1216.78405762 542.7142334 C-1221.08935726 538.69814214 -1225.41373652 534.72293905 -1229.87390137 530.8782959 C-1232.14610272 528.89883214 -1234.36865634 526.8684017 -1236.59655762 524.8392334 C-1240.0163509 521.74786539 -1243.50364286 518.78964308 -1247.09655762 515.9017334 C-1251.90991199 512.01167408 -1256.43167212 507.88551506 -1260.94519043 503.65856934 C-1265.1553251 499.73792822 -1269.54174308 496.09926296 -1274.03015137 492.49938965 C-1277.08970814 489.96060849 -1280.00047063 487.29762492 -1282.90905762 484.5892334 C-1289.90374037 477.82145501 -1289.90374037 477.82145501 -1297.78405762 472.2142334 C-1301.09866454 473.31910237 -1301.75381868 474.09046425 -1303.90905762 476.7142334 C-1307.942902 481.48228928 -1312.32508852 485.84626367 -1316.78405762 490.2142334 C-1315.28670793 494.57435414 -1312.02836007 496.24189724 -1308.29145813 498.52970886 C-1282.06273634 515.34172647 -1251.10902298 539.18973416 -1243.59374237 571.02014923 C-1239.00173277 592.34198405 -1239.01996483 614.52441312 -1239.04577637 636.23376465 C-1239.04504617 636.99350664 -1239.04431596 637.75324862 -1239.04356363 638.5360131 C-1239.01908533 665.40125536 -1240.36129082 692.1782693 -1241.47155762 719.0267334 C-1242.89468262 767.5986084 -1244.31780762 816.1704834 -1245.78405762 866.2142334 C-1374.48405762 866.2142334 -1503.18405762 866.2142334 -1635.78405762 866.2142334 C-1635.78405762 582.4142334 -1635.78405762 298.6142334 -1635.78405762 6.2142334 C-1507.41405762 6.2142334 -1379.04405762 6.2142334 -1246.78405762 6.2142334 C-1246.78405762 93.6642334 -1246.78405762 181.1142334 -1246.78405762 271.2142334 C-1229.39368845 270.05487545 -1221.53987072 266.84988487 -1209.78405762 255.2142334 C-1209.12019043 254.59935059 -1208.45632324 253.98446777 -1207.77233887 253.35095215 C-1201.35877719 247.27563104 -1196.11331422 240.22734997 -1190.78405762 233.2142334 C-1190.3042041 232.58452637 -1189.82435059 231.95481934 -1189.32995605 231.30603027 C-1183.02220162 223.01101675 -1176.87399825 214.60613909 -1170.78723145 206.14807129 C-1157.75852196 188.05296473 -1144.4003619 170.29076904 -1130.27233887 153.03894043 C-1128.96537103 151.43653268 -1127.67058741 149.82420322 -1126.37780762 148.21032715 C-1121.35216834 141.95559131 -1116.0245801 136.05689717 -1110.54968262 130.1986084 C-1108.44203457 127.93900709 -1106.40532425 125.6359576 -1104.40905762 123.2767334 C-1097.190805 114.94115912 -1089.16672196 107.02039775 -1080.74890137 99.9017334 C-1078.32448032 97.81952685 -1076.0005573 95.63921133 -1073.65905762 93.4642334 C-1067.30464541 87.68511777 -1060.63797256 82.38716072 -1053.78405762 77.2142334 C-1053.10987793 76.70489258 -1052.43569824 76.19555176 -1051.74108887 75.67077637 C-1024.46995484 55.21112476 -994.80416277 38.94644787 -962.78405762 27.2142334 C-961.76005859 26.82928711 -960.73605957 26.44434082 -959.68103027 26.04772949 C-932.82627784 16.03956492 -904.05281216 9.89627444 -875.49211121 7.54684448 C-872.8473882 7.30961377 -870.22304447 7.0367214 -867.58712769 6.72790527 C-848.33947161 4.61437441 -829.0344973 4.9545269 -809.70090222 5.01144552 C-804.66148256 5.02410637 -799.62205946 5.02513529 -794.58262634 5.02749634 C-785.07772417 5.03366665 -775.57286902 5.05001601 -766.06798738 5.07019532 C-755.23090746 5.09269438 -744.39382507 5.10358266 -733.55672753 5.11358619 C-711.29914483 5.13438717 -689.04160421 5.1694748 -666.78405762 5.2142334 C-666.80714996 6.06740237 -666.83024231 6.92057135 -666.85403442 7.79959393 C-667.3819052 27.30665749 -667.90805258 46.81376681 -668.43249512 66.32092285 C-669.00725088 87.69867873 -669.58372911 109.07638778 -670.1612854 130.45406818 C-670.50849972 143.30761019 -670.8550442 156.16116964 -671.20007324 169.01477051 C-671.50420612 180.34475922 -671.80959266 191.67471335 -672.11644173 203.00462884 C-672.27776618 208.96283808 -672.43850339 214.92106173 -672.59771729 220.87932777 C-672.74722073 226.47352249 -672.89842073 232.06766897 -673.05083466 237.66178513 C-673.10585553 239.69160398 -673.16029773 241.72143864 -673.21405792 243.75129128 C-673.59842267 258.24555209 -674.14492652 272.72898196 -674.78405762 287.2142334 C-675.83767235 287.22329523 -676.89128708 287.23235706 -677.97682953 287.2416935 C-686.92888419 287.31909783 -695.88080041 287.40617958 -704.83267975 287.50176048 C-709.48636557 287.55115746 -714.1400346 287.59747872 -718.79382324 287.6361084 C-744.13278653 287.84945556 -769.25816148 288.16344849 -794.28405762 292.5892334 C-795.55885986 292.80982422 -796.83366211 293.03041504 -798.14709473 293.25769043 C-807.14312171 294.84776076 -816.03348169 296.55556049 -824.78405762 299.2142334 C-825.57505859 299.45367676 -826.36605957 299.69312012 -827.18103027 299.93981934 C-864.36391344 311.3882518 -896.2520747 331.36898791 -925.66687012 356.5657959 C-928.49550171 358.98362315 -931.38232646 361.32193766 -934.28405762 363.6517334 C-939.66547966 368.02757585 -944.72404331 372.70732155 -949.79187012 377.43688965 C-952.70243637 380.150698 -955.68417753 382.77163096 -958.69421387 385.37438965 C-961.42777193 387.78094263 -964.10483978 390.24764532 -966.78405762 392.7142334 C-974.11519301 399.44707281 -974.11519301 399.44707281 -977.34655762 402.3392334 C-977.94597168 402.87806152 -978.54538574 403.41688965 -979.16296387 403.9720459 C-980.78405762 405.2142334 -980.78405762 405.2142334 -983.78405762 406.2142334 C-983.24265137 407.26224121 -983.24265137 407.26224121 -982.69030762 408.3314209 C-982.22624512 409.24149902 -981.76218262 410.15157715 -981.28405762 411.0892334 C-980.81999512 411.99415527 -980.35593262 412.89907715 -979.87780762 413.8314209 C-978.78405762 416.2142334 -978.78405762 416.2142334 -978.78405762 418.2142334 C-977.6019873 418.16782715 -976.41991699 418.1214209 -975.20202637 418.0736084 C-926.05184875 416.8008436 -873.8242831 427.34087797 -837.18933105 461.96813965 C-835.71705016 463.3794923 -834.25032726 464.7966366 -832.78405762 466.2142334 C-831.80372559 467.11722168 -831.80372559 467.11722168 -830.80358887 468.03845215 C-824.73223912 473.7636917 -819.80615299 480.57896937 -814.78405762 487.2142334 C-814.3675293 487.7593457 -813.95100098 488.30445801 -813.52185059 488.86608887 C-795.04962192 513.19518391 -781.66001155 541.42910696 -768.81433105 569.00524902 C-767.90812161 570.94823079 -766.99144379 572.88632284 -766.07312012 574.8236084 C-755.10716657 598.03933445 -744.92082007 621.62823856 -734.78405762 645.2142334 C-734.26528046 646.42094696 -734.26528046 646.42094696 -733.73602295 647.65203857 C-724.85293707 668.31712981 -715.9877612 688.98973082 -707.25671387 709.71960449 C-705.87853587 712.99003551 -704.49802218 716.25946886 -703.11689758 719.52865601 C-693.52486965 742.23700627 -684.03222735 764.98554885 -674.62097168 787.76940918 C-673.47130461 790.55248016 -672.31995542 793.33483745 -671.16589355 796.11608887 C-669.8478532 799.29330182 -668.53384361 802.47214053 -667.22155762 805.6517334 C-666.67543823 806.96464355 -666.67543823 806.96464355 -666.11828613 808.30407715 C-663.78405762 813.98432905 -663.78405762 813.98432905 -663.78405762 816.2142334 C-663.12405762 816.2142334 -662.46405762 816.2142334 -661.78405762 816.2142334 C-661.73507324 815.24743652 -661.68608887 814.28063965 -661.63562012 813.2845459 C-661.25986154 806.7411637 -660.796475 800.39075989 -659.33947754 793.98474121 C-658.71295084 790.85954341 -658.30011084 787.74388755 -657.90124512 784.5814209 C-656.83723643 776.3699489 -655.56199076 768.19686811 -654.26950073 760.01873779 C-650.86626535 738.45795614 -647.59608776 716.87706513 -644.3417778 695.29341888 C-643.97401469 692.85552132 -643.60569521 690.41770842 -643.23721313 687.97991943 C-642.64760312 684.07862046 -642.0594115 680.17711007 -641.47228622 676.2754364 C-641.25510937 674.83330699 -641.03753959 673.39123669 -640.81952286 671.94923401 C-639.54327273 663.50397794 -638.33952632 655.0528049 -637.23373413 646.58364868 C-636.4706593 640.86594735 -635.59505582 635.16593163 -634.72155762 629.4642334 C-634.51676582 628.12058315 -634.31210037 626.77691364 -634.10754395 625.43322754 C-633.6288126 622.29060171 -633.14909956 619.14812739 -632.66882324 616.0057373 C-631.69934541 609.6617414 -630.7322634 603.31738067 -629.76513481 596.97302628 C-627.4399027 581.71982148 -625.11246798 566.46695336 -622.78405762 551.2142334 C-615.16734277 552.94596836 -607.57707224 554.74093746 -600.01843262 556.71032715 C-553.3787056 568.71900679 -506.32529096 578.52038705 -458.78405762 586.2142334 C-456.85288086 586.53013428 -456.85288086 586.53013428 -454.88269043 586.85241699 C-440.00570956 589.26065185 -425.05574792 591.09128297 -410.09655762 592.9017334 C-409.20400269 593.01068939 -408.31144775 593.11964539 -407.3918457 593.23190308 C-397.35816902 594.44992073 -387.3681091 595.45394126 -377.2755127 596.01037598 C-371.87785805 596.32553167 -366.51251369 596.88850756 -361.13757324 597.4642334 C-345.28215939 599.0711162 -329.36153819 599.36135999 -313.43862915 599.60211182 C-266.77022753 600.33620832 -221.61685028 603.07659662 -175.78405762 612.2142334 C-174.62841309 612.44400879 -173.47276855 612.67378418 -172.28210449 612.91052246 C-146.23986563 618.19337663 -112.77900484 626.74275693 -92.59265137 645.0423584 C-90.09724825 647.41078168 -90.09724825 647.41078168 -87.67468262 647.28063965 C-85.20631035 645.88835529 -83.487389 644.20273135 -81.53405762 642.1517334 C-80.82765137 641.41825684 -80.12124512 640.68478027 -79.39343262 639.92907715 C-78.86233887 639.36317871 -78.33124512 638.79728027 -77.78405762 638.2142334 C-85.05546637 629.52401319 -92.88236694 622.23110119 -101.78405762 615.2142334 C-102.40603027 614.72116699 -103.02800293 614.22810059 -103.66882324 613.72009277 C-132.93096131 590.61240633 -164.66197265 574.5394583 -199.78405762 562.2142334 C-200.4665155 561.97406494 -201.14897339 561.73389648 -201.85211182 561.4864502 C-238.83106427 548.48095695 -276.32038032 537.59328111 -314.11657715 527.22302246 C-317.82882907 526.20191842 -321.53911898 525.17395843 -325.24890137 524.1439209 C-336.44798539 521.03743392 -347.64956602 517.96978984 -358.90905762 515.0892334 C-366.61201127 513.11238093 -374.19794893 510.90601835 -381.76135254 508.45056152 C-386.39938109 506.9491005 -391.04965171 505.56156255 -395.75036621 504.2701416 C-422.59562231 496.87324185 -448.89199214 487.41771251 -474.78405762 477.2142334 C-475.65062988 476.87553223 -476.51720215 476.53683105 -477.41003418 476.18786621 C-486.99823517 472.42570617 -496.24359738 468.18819585 -505.38708496 463.44958496 C-508.14282328 462.02933278 -510.91073894 460.63416697 -513.67858887 459.2376709 C-537.60463311 447.08677684 -560.77274094 433.19026686 -580.29577637 414.58532715 C-582.40215103 412.57815381 -584.55017414 410.70004468 -586.78405762 408.8392334 C-600.92500428 396.51724668 -612.05829129 381.12831371 -621.78405762 365.2142334 C-622.46339355 364.11595215 -623.14272949 363.0176709 -623.84265137 361.8861084 C-655.82117767 308.27688301 -660.55386072 236.13592726 -645.67541504 176.52355957 C-634.06954021 132.65627581 -606.51473463 93.7594578 -569.78405762 67.2142334 C-568.71800293 66.43821777 -567.65194824 65.66220215 -566.55358887 64.8626709 C-545.92930084 50.24228645 -523.30775568 38.41085317 -499.78405762 29.2142334 C-498.41410645 28.67137695 -498.41410645 28.67137695 -497.01647949 28.11755371 C-473.61707203 18.88839939 -449.83183811 12.50059728 -425.3079834 7.00769043 C-422.11757494 6.2893291 -418.93281913 5.55056633 -415.74890137 4.80407715 C-401.95028657 1.62033115 -388.08144098 -0.46844921 -374.04870605 -2.33239746 C-370.84004397 -2.77799165 -367.64588973 -3.28393165 -364.44812012 -3.8013916 C-356.92342029 -4.97489051 -349.36477262 -5.66461146 -341.78405762 -6.3482666 C-339.711449 -6.53666358 -337.63897799 -6.72626973 -335.56677246 -6.91905212 C-333.70847605 -7.09177064 -331.84979291 -7.26031372 -329.99108887 -7.42858887 C-326.90413991 -7.72191486 -326.90413991 -7.72191486 -324.38079834 -8.28378296 C-321.90573907 -8.762244 -319.54296667 -9.01501657 -317.0291748 -9.17468262 C-316.0919458 -9.23463913 -315.1547168 -9.29459564 -314.18908691 -9.35636902 C-313.163396 -9.41685928 -312.13770508 -9.47734955 -311.08093262 -9.53967285 C-309.97757568 -9.60511795 -308.87421875 -9.67056305 -307.73742676 -9.73799133 C-218.92990458 -14.82125403 -130.33451658 -11.32522208 0 0 Z " fill="#000000" transform="translate(2228.7840576171875,1604.7857666015625)"/>
<path d="M0 0 C2.48867563 6.09385386 4.83446832 12.20148318 6.92578125 18.44262695 C7.18994339 19.22346146 7.45410553 20.00429596 7.72627258 20.80879211 C8.59113347 23.36769146 9.45192727 25.9279369 10.3125 28.48828125 C10.92803821 30.31355403 11.54376494 32.13876325 12.15966797 33.96391296 C13.45247605 37.79703678 14.74332427 41.63081318 16.03271484 45.46508789 C17.64502976 50.25930645 19.26161869 55.05206937 20.87961864 59.8443718 C27.7140169 80.0921484 34.45316474 100.36634341 41.0160675 120.70378113 C44.22182491 130.63390417 47.50050813 140.53449293 50.91552734 150.39477539 C52.36257473 154.57528705 53.79665788 158.76024591 55.23046875 162.9453125 C55.53270355 163.82741394 55.83493835 164.70951538 56.14633179 165.61834717 C59.9993459 176.88929594 63.74500601 188.19611217 67.5 199.5 C73.19669339 216.64526519 78.9495948 233.76905927 84.83203125 250.8515625 C90.04244275 266.00289623 95.08454264 281.21040915 100.14157104 296.41342163 C102.1625883 302.48920632 104.18483717 308.56458076 106.20727539 314.63989258 C106.57525207 315.74528728 106.94322874 316.85068197 107.32235622 317.98957348 C110.4580424 327.40874578 113.59453337 336.82765001 116.73152256 346.24638844 C118.75346187 352.31739266 120.77482419 358.38858779 122.79492188 364.46020508 C131.25840619 389.89677467 139.73615259 415.32692317 148.44296265 440.68144226 C152.02070988 451.10199965 155.52825636 461.54355471 159 472 C168.24 472.33 177.48 472.66 187 473 C186.71125 470.07125 186.4225 467.1425 186.125 464.125 C186.03879395 463.22410645 185.95258789 462.32321289 185.86376953 461.39501953 C185.45340119 457.37549199 184.92777165 453.451154 184.078125 449.5 C182.61525579 442.52313449 181.83137771 435.44901659 180.94140625 428.38134766 C179.49029758 416.88668589 178.01505339 405.41175035 176 394 C174.21259692 383.84845551 172.87014899 373.65929159 171.5625 363.4375 C170.23797614 353.08546097 168.86958467 342.75741801 167.15675068 332.46125603 C166.42496751 328.06105525 165.71567796 323.65731543 165.01272553 319.25241768 C164.47615916 315.90273773 163.92272181 312.55858744 163.33768654 309.21686935 C158.06659632 278.81325605 158.3300626 248.35421377 158.48301334 217.60536103 C158.51983282 210.02585828 158.52306326 202.44655395 158.52697754 194.86694336 C158.55299627 174.95290735 158.62280194 155.03894791 158.6875 135.125 C158.790625 90.53375 158.89375 45.9425 159 0 C287.7 0 416.4 0 549 0 C549 284.13 549 568.26 549 861 C153 863 153 863 60 863 C54.93785156 847.79615234 54.93785156 847.79615234 49.7734375 832.28515625 C47.60433659 825.77272979 45.43515569 819.26033015 43.265625 812.74804688 C39.83992188 802.46506132 36.41450864 792.18197999 32.99121094 781.89819336 C18.6099132 738.57126189 18.6099132 738.57126189 3.9453125 695.33984375 C-2.35167018 677.02611525 -8.47520766 658.65515943 -14.59375 640.28125 C-14.85390632 639.50007647 -15.11406264 638.71890295 -15.38210249 637.91405749 C-19.69774915 624.95501882 -24.00918765 611.99458072 -28.32025909 599.03401947 C-32.34703118 586.92829962 -36.37513847 574.82302561 -40.40625 562.71875 C-40.66607084 561.93850739 -40.92589168 561.15826478 -41.19358587 560.35437846 C-47.48922306 541.44996467 -53.81373859 522.556908 -60.28514481 503.71176338 C-67.59767197 482.41656129 -74.6887763 461.04744732 -81.79528809 439.68280029 C-83.63189436 434.16249547 -85.4703374 428.64280239 -87.30859375 423.12304688 C-90.87412277 412.41593874 -94.43756107 401.70813666 -98 391 C-107.24 390.67 -116.48 390.34 -126 390 C-121.06969452 424.55629037 -116.01607606 459.08896993 -110.67736816 493.58466339 C-106.63566753 519.70170331 -102.74459702 545.83855677 -99 572 C-98.83090685 572.96118964 -98.6618137 573.92237928 -98.48759651 574.91269588 C-97.74898389 580.13180462 -97.86561423 585.3627306 -97.87974548 590.6235199 C-97.87888947 591.78642548 -97.87803345 592.94933105 -97.87715149 594.1474762 C-97.87578743 597.36838515 -97.87891197 600.58925364 -97.88392727 603.81015782 C-97.88830247 607.33944975 -97.88683209 610.8687402 -97.88610935 614.3980341 C-97.88557826 621.24506477 -97.89019004 628.0920823 -97.89661068 634.9391096 C-97.90381668 642.86114109 -97.90460576 650.78316471 -97.90539551 658.7052002 C-97.91064373 679.61596888 -97.92460487 700.52673464 -97.9375 721.4375 C-97.958125 768.153125 -97.97875 814.86875 -98 863 C-226.7 863 -355.4 863 -488 863 C-488 579.2 -488 295.4 -488 3 C-51.95281443 -0.08160555 -51.95281443 -0.08160555 0 0 Z " fill="#000000" transform="translate(1944,574)"/>
<path d="M0 0 C1.07962509 0.07280811 1.07962509 0.07280811 2.18106079 0.1470871 C39.40447809 2.66457154 76.52282369 6.08370052 113.6217804 10.01457214 C119.94852603 10.68414184 126.27640174 11.33352134 132.609375 11.94140625 C133.29651077 12.00741531 133.98364655 12.07342438 134.69160461 12.14143372 C135.3461412 12.20425034 136.0006778 12.26706696 136.67504883 12.33178711 C147.49481996 13.37199869 158.25017699 14.61317456 168.99609375 16.25390625 C180.31090167 17.97116408 191.67203953 19.34008831 203.03540039 20.68875122 C213.2008578 21.89886109 223.36380054 23.12466496 233.5 24.5625 C234.59658936 24.71609985 234.59658936 24.71609985 235.71533203 24.87280273 C240.10903429 25.51173537 244.4773272 26.25932302 248.84686279 27.04696655 C257.55345567 28.61478054 266.27211954 29.93626703 275.03665161 31.13375854 C286.03686103 32.64333545 296.99585327 34.21984952 307.88574219 36.40332031 C316.56503925 38.1433642 325.28095733 39.66196106 334 41.1875 C336.24043784 41.57952973 338.48086904 41.97159472 340.72120667 42.36419678 C342.6955098 42.70997893 344.67001432 43.05461068 346.64453125 43.39916992 C349.43790598 43.89935147 352.22022495 44.42981519 355 45 C354.53846159 52.42105183 353.79816461 59.69871625 352.59765625 67.03515625 C351.77748214 72.25457218 351.19375703 77.50514655 350.5625 82.75 C349.61672885 90.54584788 348.50086401 98.26170131 347.05493164 105.97949219 C346.16642197 110.80466632 345.53036563 115.62319625 345 120.5 C344.22626 127.60285132 343.08923606 134.58605853 341.78125 141.609375 C339.87360664 152.06102364 338.48640197 162.59915468 337.0625 173.125 C335.37097786 185.51370182 333.49536764 197.86040224 331.4765625 210.19921875 C330.33384633 217.36461116 329.43586696 224.54792737 328.5625 231.75 C327.60916433 239.59095894 326.49569065 247.35894021 325.05493164 255.12451172 C324.01762686 260.74546243 323.25488118 266.37843079 322.53125 272.046875 C321.59733259 278.99631922 320.45511283 285.91307322 319.34375 292.8359375 C318.87878763 295.76308697 318.43965666 298.69395557 318 301.625 C316.80691156 309.4407404 315.39782033 317.21880014 314 325 C307.17310675 324.24531483 300.64371588 322.46995072 294.00390625 320.75390625 C292.04017033 320.2519441 290.07600334 319.75169238 288.11181641 319.25149822 C286.73295755 318.90031433 285.35419532 318.54875084 283.9755249 318.19682789 C261.54846041 312.47237999 239.11318237 306.91679947 216.4375 302.25 C215.5004422 302.0561673 214.5633844 301.86233459 213.59793091 301.66262817 C193.40113252 297.50670848 173.06717418 294.12648681 152.71728516 290.81738281 C149.97126772 290.37032229 147.22586696 289.91959579 144.48046875 289.46875 C127.97051861 286.76967934 111.43583228 284.64387273 94.80810547 282.82275391 C91.927424 282.50576865 89.04772841 282.18070639 86.16796875 281.85546875 C61.59558569 279.12615847 37.12350852 277.77080164 12.40365601 277.59436035 C-59.10590074 277.01992011 -136.4455602 274.06595034 -201.3125 240.875 C-202.27430176 240.38410889 -203.23610352 239.89321777 -204.22705078 239.38745117 C-209.79703239 236.44683577 -214.38437263 233.29094186 -219 229 C-224.32697239 230.45281065 -227.36402802 234.08111378 -231 238 C-229.40780224 242.1067052 -226.44385233 244.67735238 -223.25 247.5625 C-222.67362793 248.0877124 -222.09725586 248.6129248 -221.50341797 249.15405273 C-215.25995603 254.77283127 -208.70102108 259.94197405 -202 265 C-201.40461426 265.4522998 -200.80922852 265.90459961 -200.19580078 266.37060547 C-195.8520519 269.65906034 -191.45388162 272.86237034 -187 276 C-186.37883301 276.43779785 -185.75766602 276.8755957 -185.11767578 277.32666016 C-154.66621559 298.50380292 -120.05744882 310.82524968 -85 322 C-83.82727539 322.37753418 -82.65455078 322.75506836 -81.44628906 323.14404297 C-66.15349193 328.05561329 -50.80564983 332.46237789 -35.234375 336.3984375 C-29.87072964 337.7596288 -24.55801386 339.25048793 -19.25 340.8125 C-8.95828297 343.82239105 1.42492183 346.47010697 11.8125 349.125 C12.64221313 349.33710114 13.47192627 349.54920227 14.32678223 349.76773071 C19.88253686 351.18635724 25.44044114 352.59635966 31 354 C31.74583344 354.18834412 32.49166687 354.37668823 33.26010132 354.57073975 C40.55385509 356.41015759 47.84854119 358.22314432 55.1875 359.875 C62.39084296 361.5370515 69.48166338 363.5138595 76.57788086 365.58203125 C82.52080491 367.30917184 88.48309714 368.93543662 94.46826172 370.50976562 C108.47806249 374.203467 122.25793927 378.41455358 136 383 C137.14871582 383.38027344 138.29743164 383.76054688 139.48095703 384.15234375 C157.2901474 390.07014635 174.73799287 396.63658377 192 404 C192.90540527 404.38510742 193.81081055 404.77021484 194.74365234 405.16699219 C237.67499049 423.57426035 280.17492196 449.44157957 309 487 C309.41427246 487.52722656 309.82854492 488.05445313 310.25537109 488.59765625 C323.45671702 505.45002232 333.26665666 524.08370524 341 544 C341.25330078 544.64533691 341.50660156 545.29067383 341.76757812 545.95556641 C359.34461111 591.66336373 360.1887344 649.31001878 351 697 C350.81276367 697.97759277 350.62552734 698.95518555 350.43261719 699.96240234 C342.88978088 737.72217961 326.60180173 771.11665162 300 799 C299.27167969 799.78117187 298.54335937 800.56234375 297.79296875 801.3671875 C291.44433713 807.98672547 284.3578784 813.55805078 277 819 C276.4519873 819.40831055 275.90397461 819.81662109 275.33935547 820.23730469 C201.38352423 874.52048469 90.97540521 883.15323059 -20.07897949 886.9375 C-25.63378029 887.10215339 -31.18850099 887.26927615 -36.74312782 887.43969727 C-38.63731396 887.49717336 -40.53156926 887.55235692 -42.42582703 887.60742188 C-48.78595533 887.80083666 -55.13634448 888.05120666 -61.49070358 888.37984943 C-72.9340574 888.96642383 -84.35131107 889.19306555 -95.80859375 889.23828125 C-97.23846556 889.24545386 -97.23846556 889.24545386 -98.69722366 889.25277138 C-105.94397705 889.28843531 -113.19066933 889.30390607 -120.4375 889.3125 C-122.03905001 889.3151096 -122.03905001 889.3151096 -123.67295456 889.31777191 C-160.70623799 889.37097386 -197.4805436 888.2055303 -234.41333008 885.53442383 C-239.78914804 885.14805495 -245.16587641 884.79651737 -250.5456543 884.47143555 C-251.61876909 884.40629761 -251.61876909 884.40629761 -252.71356297 884.33984375 C-256.14042225 884.13247023 -259.56741761 883.92859413 -262.99476624 883.72940063 C-274.60129226 883.03036967 -286.11161767 881.75731086 -297.65478516 880.38671875 C-303.38917888 879.72380241 -309.13212391 879.14646107 -314.875 878.5625 C-319.22077141 878.11515431 -323.5663592 877.66604168 -327.91186523 877.21612549 C-329.35601975 877.06665305 -330.80019424 876.91737361 -332.24438477 876.76824951 C-367.31629655 873.14356541 -367.31629655 873.14356541 -379.36523438 871.07421875 C-386.73707385 869.81943756 -394.15431522 868.98679316 -401.58691406 868.17749023 C-407.98257127 867.4544615 -414.29391573 866.44459669 -420.62345886 865.29244995 C-427.43827896 864.06723254 -434.27573929 863.01583565 -441.12109375 861.9765625 C-469.33511748 857.66689482 -497.42527926 852.97447557 -525.42644119 847.43486786 C-527.62078909 847.0008329 -529.81549028 846.56861804 -532.01022339 846.13653564 C-536.10495299 845.32894714 -540.19727562 844.50987309 -544.2890625 843.6875 C-545.50699997 843.44518646 -546.72493744 843.20287292 -547.9797821 842.95321655 C-549.09972061 842.72502228 -550.21965912 842.496828 -551.37353516 842.26171875 C-552.3448941 842.06537842 -553.31625305 841.86903809 -554.31704712 841.66674805 C-557.00636589 840.99841799 -559.4558763 840.09083952 -562 839 C-561.40525872 830.5517537 -560.393768 822.23252329 -559.109375 813.86328125 C-558.92437943 812.63668793 -558.73938385 811.4100946 -558.54878235 810.14633179 C-558.05448225 806.87381778 -557.55675156 803.60184985 -557.05739212 800.33010483 C-556.54104244 796.94098213 -556.02942412 793.55114539 -555.51733398 790.16137695 C-554.35001769 782.4401354 -553.17571176 774.71996787 -552 767 C-551.70650477 765.07129487 -551.41304389 763.14258452 -551.11962891 761.21386719 C-550.92637527 759.94374535 -550.92637527 759.94374535 -550.72921753 758.64796448 C-550.37882305 756.34436407 -550.02875822 754.04071374 -549.67871094 751.73706055 C-549.28706599 749.16004435 -548.89288487 746.5834637 -548.49707031 744.00708008 C-547.63399743 738.35732786 -546.82096154 732.70570522 -546.08178711 727.03833008 C-545.05764417 719.281477 -543.903217 711.54642447 -542.71875 703.8125 C-542.50081973 702.38258606 -542.28300884 700.95265391 -542.06530762 699.52270508 C-541.49371493 695.7706742 -540.92040623 692.01890768 -540.34661865 688.26721191 C-539.8913704 685.2894603 -539.43702018 682.311572 -538.98269653 679.3336792 C-537.37483333 668.79499999 -535.76303919 658.25692263 -534.15106201 647.71887207 C-532.65876059 637.9629026 -531.1677117 628.20674365 -529.67919922 618.45019531 C-529.22174932 615.45206292 -528.76368791 612.45402481 -528.30517578 609.45605469 C-527.73665013 605.73826673 -527.1695991 602.02025639 -526.60353088 598.30209351 C-526.39376324 596.92573726 -526.18353153 595.54945163 -525.97276306 594.17324829 C-524.64819292 585.56400792 -524.64819292 585.56400792 -523.48413086 576.93212891 C-523.3995739 576.26127762 -523.31501694 575.59042633 -523.22789764 574.89924622 C-522.99720188 573.04460287 -522.77462821 571.18895436 -522.5526123 569.33325195 C-522.00894312 566.05394317 -521.13968398 563.1171224 -520 560 C-514.92592772 560.74521793 -510.04945949 561.95608656 -505.09765625 563.2578125 C-503.31964446 563.71973032 -501.5415655 564.18138963 -499.76342773 564.64282227 C-498.83456757 564.88461212 -497.9057074 565.12640198 -496.94869995 565.3755188 C-454.12609766 576.4955853 -410.84034788 585.70346405 -367.1875 592.9375 C-365.94388199 593.14379028 -365.94388199 593.14379028 -364.67514038 593.35424805 C-346.77688171 596.30489237 -328.81945948 598.87163275 -310.8125 601.0625 C-309.77106339 601.18948273 -309.77106339 601.18948273 -308.70858765 601.31903076 C-297.1567015 602.71821653 -285.60556803 603.76043227 -273.99609375 604.56640625 C-269.30119388 604.89297519 -264.62035913 605.29917552 -259.93774414 605.76928711 C-251.57205869 606.57017896 -243.23021243 607.19789482 -234.83203125 607.53125 C-233.28016365 607.59428062 -233.28016365 607.59428062 -231.69694519 607.65858459 C-221.44419251 608.05490884 -211.19082566 608.23172803 -200.93212891 608.38815308 C-184.44140839 608.64900664 -167.96956071 609.0455218 -151.5 609.9375 C-150.41750473 609.99392166 -150.41750473 609.99392166 -149.31314087 610.05148315 C-132.81752 610.92776763 -116.5224255 612.86236991 -100.25 615.6875 C-99.50930267 615.81494598 -98.76860535 615.94239197 -98.00546265 616.07369995 C-77.13741189 619.68633831 -55.94463053 623.7697812 -36 631 C-35.14422363 631.30631348 -34.28844727 631.61262695 -33.40673828 631.92822266 C-16.70295067 637.97857172 -1.06828306 645.03250049 13 656 C16.18086518 654.49053489 18.29869906 652.92058175 20.75 650.375 C21.36359375 649.74335937 21.9771875 649.11171875 22.609375 648.4609375 C23.29773437 647.73777344 23.29773437 647.73777344 24 647 C22.37669142 642.68158295 19.07567039 639.96707671 15.75 636.9375 C15.12375732 636.36314209 14.49751465 635.78878418 13.85229492 635.19702148 C7.49901274 629.43873806 0.84464311 624.15708455 -6 619 C-6.73412109 618.44135254 -7.46824219 617.88270508 -8.22460938 617.30712891 C-18.46266461 609.5308799 -28.74158148 602.21829756 -40 596 C-40.8029248 595.54947266 -41.60584961 595.09894531 -42.43310547 594.63476562 C-78.51713725 574.52917529 -119.47294533 562.12514478 -159.07080078 550.84863281 C-163.0148874 549.70597194 -166.93463677 548.48978057 -170.85620117 547.27246094 C-179.92941922 544.45856154 -189.02936354 541.89465619 -198.2355957 539.5546875 C-209.84934131 536.57635655 -221.36767642 533.253606 -232.89453125 529.95800781 C-241.07120892 527.62720936 -249.25479338 525.40194984 -257.5128479 523.37759399 C-263.00977926 522.02147098 -268.41209184 520.44512952 -273.8125 518.75 C-275.79652849 518.13559869 -277.78091915 517.52236596 -279.765625 516.91015625 C-280.78462891 516.59578613 -281.80363281 516.28141602 -282.85351562 515.95751953 C-287.12971079 514.65621309 -291.42171916 513.4117798 -295.71386719 512.16430664 C-353.6895924 495.25260669 -415.18898867 474.0409351 -463 436 C-464.39605469 434.89205078 -464.39605469 434.89205078 -465.8203125 433.76171875 C-481.9219994 420.77721079 -496.7482001 406.69864197 -509 390 C-509.76828125 388.96488281 -510.5365625 387.92976563 -511.328125 386.86328125 C-547.36224332 336.65490309 -558.08965471 269.40593317 -549 209 C-541.7067047 169.32093866 -526.40908944 134.20207138 -499.0234375 104.24609375 C-497.42588072 102.47274404 -495.91616508 100.68316018 -494.4375 98.8125 C-491.94633924 95.93808374 -489.35085392 93.542181 -486.453125 91.08984375 C-484.64552821 89.54993247 -482.86848019 87.97398676 -481.109375 86.37890625 C-466.68662036 73.41184052 -450.14829865 62.98828534 -433 54 C-432.35788574 53.66307129 -431.71577148 53.32614258 -431.05419922 52.97900391 C-426.4115007 50.56360048 -421.72417527 48.25153138 -417 46 C-416.32308105 45.67676758 -415.64616211 45.35353516 -414.94873047 45.02050781 C-401.64801521 38.73744373 -387.90342771 33.77243885 -374 29 C-373.17419434 28.71382812 -372.34838867 28.42765625 -371.49755859 28.1328125 C-337.0998929 16.32345882 -300.02532437 9.53283067 -264 5 C-262.11885498 4.76228882 -262.11885498 4.76228882 -260.19970703 4.51977539 C-256.80767143 4.0925279 -253.41488387 3.67153569 -250.02191162 3.25180054 C-248.07940721 3.00988905 -246.13758646 2.76250701 -244.19580078 2.51489258 C-163.29280147 -7.66402877 -81.1664888 -5.48888478 0 0 Z " fill="#000000" transform="translate(1066,563)"/>
</svg>
