<?xml version="1.0" standalone="no"?>
<!DOCTYPE svg PUBLIC "-//W3C//DTD SVG 20010904//EN"
 "http://www.w3.org/TR/2001/REC-SVG-20010904/DTD/svg10.dtd">
<svg version="1.0" xmlns="http://www.w3.org/2000/svg"
 width="3000.000000pt" height="608.000000pt" viewBox="0 0 3000.000000 608.000000"
 preserveAspectRatio="xMidYMid meet">

<g transform="translate(0.000000,608.000000) scale(0.100000,-0.100000)"
fill="#000000" stroke="none">
<path d="M2020 5089 c-784 -63 -1302 -278 -1538 -641 -110 -170 -152 -315
-159 -554 -8 -251 23 -416 111 -594 109 -222 304 -404 586 -545 209 -104 414
-176 860 -300 792 -219 954 -285 1201 -491 106 -88 107 -89 79 -119 -13 -14
-27 -25 -31 -25 -4 0 -30 15 -58 34 -91 62 -291 128 -486 160 -146 25 -283 35
-590 46 -159 5 -351 17 -425 25 -292 34 -646 99 -940 173 -85 22 -157 38 -159
35 -7 -6 -211 -1367 -207 -1378 4 -12 289 -68 576 -115 561 -90 1131 -140
1600 -140 408 0 904 28 1158 65 806 118 1160 413 1222 1020 32 304 -24 595
-156 817 -67 112 -218 264 -350 351 -237 157 -489 251 -1099 408 -790 205
-971 279 -1243 510 l-73 62 29 30 30 29 48 -32 c183 -126 591 -210 1023 -210
397 0 914 -73 1425 -201 87 -22 161 -37 165 -34 7 7 211 1378 206 1383 -6 6
-323 60 -540 92 -447 66 -848 109 -1239 135 -247 16 -843 18 -1026 4z"/>
<path d="M27015 5093 c-1235 -84 -1820 -537 -1754 -1360 35 -448 256 -756 701
-979 217 -109 404 -173 943 -323 410 -114 523 -150 705 -221 169 -67 323 -164
465 -293 l50 -45 -24 -26 c-14 -14 -28 -26 -32 -26 -5 0 -28 13 -52 30 -132
89 -397 162 -687 189 -63 6 -243 15 -400 21 -390 13 -621 41 -1035 125 -121
25 -278 60 -350 79 -71 19 -133 31 -136 28 -3 -4 -48 -288 -98 -632 -51 -344
-96 -638 -100 -654 -6 -27 -10 -22 -46 65 -217 529 -492 1159 -567 1299 -126
238 -271 408 -413 482 -124 65 -319 108 -489 108 -49 0 -58 3 -73 27 l-17 26
64 60 c373 344 561 456 863 514 54 10 173 18 347 22 l265 6 2 50 c6 120 33
1160 33 1254 l0 103 -502 -5 c-528 -5 -606 -11 -787 -57 -185 -47 -382 -134
-531 -233 -237 -158 -415 -343 -691 -721 -180 -248 -253 -316 -339 -316 l-30
0 0 665 0 665 -970 0 -970 0 -2 -1985 -3 -1985 -614 1967 c-338 1083 -618
1976 -623 1986 -8 16 -90 17 -1498 17 l-1489 0 -44 -137 c-24 -76 -297 -951
-608 -1945 l-564 -1806 -5 496 -5 497 -1162 3 -1163 2 0 165 0 165 1040 0
1040 0 0 415 0 415 -1040 0 -1040 0 0 165 0 165 1165 0 1165 0 -2 698 -3 697
-2132 3 -2133 2 0 -2145 0 -2145 3128 0 3128 0 74 278 c40 152 82 310 93 350
l19 72 539 0 538 0 11 -37 c5 -21 48 -177 94 -348 l83 -310 1977 -3 1976 -2 0
757 0 758 -177 177 -178 178 50 49 50 50 190 -167 c482 -422 540 -500 685
-927 77 -226 181 -493 282 -725 l63 -145 1018 -3 c569 -1 1017 2 1017 7 0 4
-14 41 -30 81 -17 40 -29 74 -28 76 2 1 46 -6 98 -17 319 -66 851 -144 1225
-178 690 -64 1548 -48 2070 40 483 81 795 244 964 504 194 296 225 818 72
1187 -69 164 -228 353 -392 465 -240 164 -508 265 -1123 424 -785 203 -960
274 -1230 498 l-88 73 30 30 30 30 48 -32 c86 -60 243 -117 421 -155 151 -31
317 -46 603 -55 506 -15 913 -73 1424 -201 87 -22 161 -37 165 -34 6 7 211
1378 206 1383 -5 6 -323 60 -542 92 -445 66 -926 117 -1310 140 -156 9 -777
11 -898 3z m-9295 -1760 c33 -397 33 -398 80 -570 l47 -173 -229 0 c-143 0
-228 4 -228 10 0 5 20 83 44 172 44 159 46 171 71 493 14 182 28 360 32 398
l6 67 72 0 71 0 34 -397z"/>
<path d="M5708 5023 l-708 -3 0 -2145 0 -2145 970 0 970 0 0 713 0 712 -70
465 c-38 256 -70 466 -70 468 0 2 32 2 72 0 l72 -3 393 -1175 394 -1175 962 2
c529 2 1076 6 1215 9 l252 6 0 2139 0 2139 -970 0 -970 0 0 -675 0 -674 70
-482 c39 -265 70 -492 70 -505 0 -23 -3 -24 -69 -24 l-69 0 -346 1033 c-190
567 -368 1097 -395 1177 l-48 145 -509 0 c-280 0 -827 -1 -1216 -2z"/>
</g>
</svg>
